<?xml version="1.0" encoding="utf-8"?>
<!-- Generator: Adobe Illustrator 17.0.0, SVG Export Plug-In . SVG Version: 6.00 Build 0)  -->
<!DOCTYPE svg PUBLIC "-//W3C//DTD SVG 1.1//EN" "http://www.w3.org/Graphics/SVG/1.1/DTD/svg11.dtd">
<svg version="1.1" id="图层_1" xmlns="http://www.w3.org/2000/svg" xmlns:xlink="http://www.w3.org/1999/xlink" x="0px" y="0px"
	 width="62px" height="62px" viewBox="0 0 62 62" enable-background="new 0 0 62 62" xml:space="preserve">
<path d="M31,9.813C19.298,9.813,9.813,19.298,9.813,31S19.298,52.188,31,52.188S52.188,42.702,52.188,31S42.702,9.813,31,9.813z
	 M36.045,21.368l-9.878,9.878l9.385,9.385c0.391,0.391,0.391,1.023,0,1.414c-0.195,0.195-0.451,0.293-0.707,0.293
	s-0.512-0.098-0.707-0.293L24.046,31.954c-0.391-0.391-0.391-1.023,0-1.414l10.585-10.585c0.391-0.391,1.023-0.391,1.414,0
	S36.436,20.978,36.045,21.368z"/>
</svg>
