<?xml version="1.0" encoding="utf-8"?>
<!-- Generator: Adobe Illustrator 17.0.0, SVG Export Plug-In . SVG Version: 6.00 Build 0)  -->
<!DOCTYPE svg PUBLIC "-//W3C//DTD SVG 1.1//EN" "http://www.w3.org/Graphics/SVG/1.1/DTD/svg11.dtd">
<svg version="1.1" id="图层_1" xmlns="http://www.w3.org/2000/svg" xmlns:xlink="http://www.w3.org/1999/xlink" x="0px" y="0px"
	 width="62px" height="62px" viewBox="0 0 62 62" enable-background="new 0 0 62 62" xml:space="preserve">
<path display="none" d="M31,9.813C19.298,9.813,9.813,19.298,9.813,31S19.298,52.188,31,52.188S52.188,42.702,52.188,31
	S42.702,9.813,31,9.813z M36.045,21.368l-9.878,9.878l9.385,9.385c0.391,0.391,0.391,1.023,0,1.414
	c-0.195,0.195-0.451,0.293-0.707,0.293s-0.512-0.098-0.707-0.293L24.046,31.954c-0.391-0.391-0.391-1.023,0-1.414l10.585-10.585
	c0.391-0.391,1.023-0.391,1.414,0S36.436,20.978,36.045,21.368z"/>
<path d="M38.804,49.521c-0.384,0-0.768-0.146-1.061-0.439l-17.191-17.19c-0.586-0.586-0.586-1.536,0-2.122l16.85-16.85
	c0.586-0.586,1.535-0.586,2.121,0c0.586,0.585,0.586,1.536,0,2.121l-15.79,15.79l16.13,16.13c0.586,0.586,0.586,1.535,0,2.121
	C39.571,49.374,39.188,49.521,38.804,49.521z"/>
</svg>
