<?xml version="1.0" encoding="utf-8"?>
<!-- Generator: Adobe Illustrator 19.2.1, SVG Export Plug-In . SVG Version: 6.00 Build 0)  -->
<svg version="1.1" id="Layer_1" xmlns="http://www.w3.org/2000/svg" xmlns:xlink="http://www.w3.org/1999/xlink" x="0px" y="0px"
	 viewBox="0 0 747 688.1" style="enable-background:new 0 0 747 688.1;" xml:space="preserve">

	 <defs>
	 	<linearGradient id="buyer_grad_male" x1="0%" y1="60%" x2="0%" y2="61%">
	 		<stop offset="0%" style="stop-color:#94c6f6;stop-opacity:1" />
	 		<stop offset="100%" style="stop-color:#57a6f3;stop-opacity:1" />
	 	</linearGradient>
	 </defs>

<style type="text/css">
	.st0{display:none;}
	.st1{display:inline;}
</style>
<g id="Layer_4" class="st0">
	
		<image style="display:inline;overflow:visible;enable-background:new    ;" width="512" height="512" xlink:href="13F2F6E7.png"  transform="matrix(2.2821 0 0 2.2821 -213.2208 -354.091)">
	</image>
	<path class="st1" d="M715,0.9H32c-17.7,0-32,14.3-32,32v474c0,17.7,14.3,32,32,32h297.7l-7.8,34h-72.6c-12.6,0-24.4,6.1-31.7,16.3
		l-19.4,27.1c-3.8,5.3,0,12.6,6.5,12.6h337.5c6.4,0,10.2-7.1,6.6-12.4l-18-26.5c-7.3-10.7-19.3-17.1-32.2-17.1h-73.1l-7.4-34H715
		c17.7,0,32-14.3,32-32v-474C747,15.2,732.7,0.9,715,0.9z"/>
	<path class="st1" d="M302.9,1.9H39.1C17.5,1.9,0,19.4,0,41v548.8c0,21.6,17.5,39.1,39.1,39.1h263.8c21.6,0,39.1-17.5,39.1-39.1V41
		C342,19.4,324.5,1.9,302.9,1.9z M171,595.6c-14.1,0-25.5-11.4-25.5-25.5s11.4-25.5,25.5-25.5s25.5,11.4,25.5,25.5
		C196.6,584.2,185.1,595.6,171,595.6z M311.4,516.9H30.3c-1.5,0-2.8-1.5-2.8-3s1.2-3,2.8-3h281.2c1.5,0,2.8,1.5,2.8,3
		S312.9,516.9,311.4,516.9z"/>
</g>
<g id="Layer_5" class="st0">
	
		<image style="display:inline;overflow:visible;enable-background:new    ;" width="512" height="512" xlink:href="13F2F6E5.png"  transform="matrix(1.6328 0 0 1.6328 -102.0382 -116.1)">
	</image>
	<path class="st1" d="M631.4,579.4l-79.5-402.5c-4.7-24.5-26.1-42-51-42H436C432.7,65,375.1-0.6,304.4-0.6S176,65,172.7,134.9h-51.8
		c-25.4,0-47.1,18.2-51.3,43.3L0.3,580.5c-4.3,25.4,15.3,48.4,41,48.4h549.2C616.7,628.9,636.3,605.1,631.4,579.4z M304.4,31.1
		c53.2,0,96.6,51.5,99.9,103.8H204.5C207.7,82.6,251.2,31.1,304.4,31.1z M191,270c-13.8,0-25-11.2-25-25s11.2-25,25-25
		s25,11.2,25,25S204.8,270,191,270z M417,270c-13.8,0-25-11.2-25-25s11.2-25,25-25s25,11.2,25,25S430.8,270,417,270z"/>
	
		<image style="display:inline;overflow:visible;enable-background:new    ;" width="440" height="440" xlink:href="13F2F6EB.jpeg"  transform="matrix(1.9499 0 0 1.9499 -44.3888 -117.4849)">
	</image>
	<path class="st1" d="M642.3,566.9h-18.7c4.9-4,8.4-9.7,8.4-16.7c0,0-0.2-226.3-0.2-226.7c0-42.6-20.2-79.9-50.7-100.7l-0.2-0.1
		v-82.4c0-28.3-14.6-52.6-35.9-63.4h-0.1V32.8l0.5,0.2h7.9c8.1,0,14.7-7.5,14.6-16.8C567.8,7,560.8,0,552.8,0h-103
		c-8.1,0-14.7,7.5-14.6,16.8c0.1,9.2,7.1,16.2,15.1,16.2h8.7l0.9-0.2v33.8h-0.4c-20.7,9.3-35.6,32.6-35.6,59.5
		c0,5,0.1,14.8,0.1,14.8v149h-42v-17.6c0-20.3-14.3-36.4-32.1-36.4h-45.1c-17.8,0-32.8,16-32.8,36.4v17.6h-36
		c0,0-0.1-158.8-0.1-163.8c0-26.9-16.6-50-37.3-59.3l-0.5-0.2V32.8l1.1,0.2h8.7c8.1,0,15-7,15.1-16.2C223.1,7.5,216.5,0,208.4,0
		h-103c-8.1,0-15,7-15.1,16.2C90.2,25.5,96.8,33,104.9,33h7.9l0.3-0.2v44.1H113C91.6,87.7,77,112,77,140.3v82.4l0,0
		c-30.6,20.9-50.6,58.2-50.6,100.8c0,0.5-0.4,226.7-0.4,226.7c0,7,3.7,12.7,8.6,16.7H15.9C7.1,566.9,0,575,0,585v25.7
		c0,10,7.1,18.2,15.9,18.2h233.6c8.8,0,16.5-8.2,16.5-18.2V585c0-10-7.8-18.1-16.5-18.1h-22.7c4.9-4,9.2-9.7,9.2-16.7V427.9h36v12.9
		c0,20.3,14.9,37.1,32.8,37.1h45.1c17.8,0,32.1-16.8,32.1-37.1v-12.9h42v122.3c0,7,2.6,12.7,7.4,16.7h-22.7
		c-8.8,0-16.7,8.1-16.7,18.1v25.7c0,10,8,18.2,16.7,18.2h233.6c8.8,0,16.7-8.2,16.7-18.2V585C659,575,651.1,566.9,642.3,566.9z"/>
</g>
<path d="M289.1,149h-74.7c30.1-10.3,51.8-38.8,51.8-72.4c0-42.3-34.3-76.6-76.5-76.6c-42.3,0-76.5,34.3-76.5,76.6
	c0,33.6,21.7,62.1,51.8,72.4H90.1C40.4,149,0,177.9,0,216.2v154c0,16,13,29,29,29s29-13,29-29V206h33v310l-0.5,72c0,0,0,0.2,0,0.3
	c0,23,19.7,41.8,42.8,41.8s40.8-18.7,40.8-41.8c0-3.1,0-184.3,0-184.3h15.5h15.5c0,0,0,181.2,0,184.3c0,23.1,17.7,41.8,40.8,41.8
	s42.8-18.8,42.8-41.8c0-0.1,0-0.3,0-0.3l-0.5-72V206h33v164.2c0,16,13,29,29,29s29-13,29-29v-154C379.1,177.9,338.8,149,289.1,149z"
	 fill="url(#buyer_grad_male)"/>
</svg>
