<?xml version="1.0" encoding="utf-8"?>
<!-- Generator: Adobe Illustrator 18.1.1, SVG Export Plug-In . SVG Version: 6.00 Build 0)  -->
<svg version="1.1" id="Layer_1" xmlns="http://www.w3.org/2000/svg" xmlns:xlink="http://www.w3.org/1999/xlink" x="0px" y="0px"
	 viewBox="29.6 264.2 552.7 376.8" enable-background="new 29.6 264.2 552.7 376.8" xml:space="preserve">
<path d="M523.1,264.2c-32.5,0-59.3,26.8-59.3,59.3c0,13.4,3.8,24.9,9.6,34.4L366.2,522.4h-1.9c-5.7,0-9.6,0-13.4,1.9l-76.5-116.7
	c3.8-7.6,3.8-15.3,3.8-23c0-32.5-26.8-59.3-59.3-59.3s-59.3,26.8-59.3,59.3c0,9.6,1.9,19.1,7.6,26.8L94.7,522.4c-1.9,0-3.8,0-5.7,0
	c-32.5,0-59.3,26.8-59.3,59.3c0,32.5,26.8,59.3,59.3,59.3s59.3-26.8,59.3-59.3c0-13.4-3.8-24.9-11.5-34.4l68.9-105.2
	c3.8,1.9,9.6,1.9,13.4,1.9c5.7,0,11.5-1.9,17.2-3.8L310.8,553c-3.8,7.6-7.6,17.2-7.6,26.8c0,32.5,26.8,59.3,59.3,59.3
	s59.3-26.8,59.3-59.3c0-13.4-3.8-24.9-11.5-34.4l107.1-162.6c1.9,0,3.8,0,5.7,0c32.5,0,59.3-26.8,59.3-59.3S555.6,264.2,523.1,264.2
	z"/>
</svg>
