<?xml version="1.0" encoding="utf-8"?>
<!-- Generator: Adobe Illustrator 19.2.1, SVG Export Plug-In . SVG Version: 6.00 Build 0)  -->
<svg version="1.1" id="Layer_1" xmlns="http://www.w3.org/2000/svg" xmlns:xlink="http://www.w3.org/1999/xlink" x="0px" y="0px"
	 viewBox="0 0 747 688" style="enable-background:new 0 0 747 688;" xml:space="preserve">
	 <defs>
	  	<linearGradient id="buyer_grad_hunter" x1="0%" y1="39%" x2="0%" y2="40%">
	  		<stop offset="0%" style="stop-color:#ce98f7;stop-opacity:1" />
	  		<stop offset="100%" style="stop-color:#b05cf1;stop-opacity:1" />
	  	</linearGradient>
	 </defs>
<style type="text/css">
	.st0{display:none;}
	.st1{display:inline;}
</style>
<g id="Layer_1_1_" class="st0">
	<g id="Layer_3" class="st1">
		<path class="st0" d="M325.9,148.9h-74.7c30.1-10.3,51.8-38.8,51.8-72.4c0-42.3-34.3-76.6-76.6-76.6c-42.2,0-76.5,34.3-76.5,76.6
			c0,33.6,21.7,62.2,51.8,72.4h-84.8v0.8c-45,5-80,32.1-80,66.4v154c0,16,13,29,29,29s29-13,29-29V205.9h33v310
			c0,94.9,18.6,113.5,41.5,113.5s41.5-18.6,41.5-41.5v-184h31v175.2c-0.6,2.9-1,6-1,9.1c0,23.1,18.7,41.8,41.8,41.8
			s41.8-18.8,41.8-41.8c0-0.1,0-0.3,0-0.3l0.5-72v-310h33v164.2c0,16,13,29,29,29s29-13,29-29v-154
			C416,177.8,375.6,148.9,325.9,148.9z"/>
		<path d="M452.8,334.6l-55.6-117.5c-24.3-57.3-51.7-65.9-104.3-65.9l-45.5-0.7c37.6-10.1,63.9-48.2,54.9-90.6
			c-6-28.6-28.2-51.3-56.6-57.8c-50.2-11.7-94.8,26.1-94.8,74.4c0,34.6,22.9,63.7,54.3,73.3l-38.9-0.6c-58.7,0-84.8,5.7-114.5,70.9
			L0.4,329.9c-0.3,1.6-0.4,3.2-0.4,4.9c0,17,13.8,30.7,30.9,30.7c11.9,0,22.2-6.9,27.4-16.7l61.8-133.3c0.6-2.1,2.6-3.5,4.7-3.5
			h13.5c4.2,0,7.3,4,6.1,8.1L58,424.5c-2.1,7.2,3.3,14.5,10.9,14.5h71v149.4c0,22.8,16.6,41.2,37,41.2s37-18.5,37-41.2V438.9h27
			v140.6c0,2.9-0.7,5.9-0.7,9c0,22.9,16.7,41.5,37.2,41.5s37.2-18.8,37.2-41.7c0-0.1,0,0.5,0-0.5h0.3V438.9h70.7
			c8.1,0,14-7.8,11.7-15.6l-90.9-203.4c-1.2-4,1.8-8,6-8h13.9c2.6,0,4.9,1.7,5.7,4.2l60.4,127.4c0,0.1,2.6,6.2,2.6,6.2
			c5.3,9.3,15.4,15.7,26.9,15.7C439,365.4,452.8,351.6,452.8,334.6z"/>
	</g>
</g>
<g id="Layer_4" class="st0">
	
		<image style="display:inline;overflow:visible;enable-background:new    ;" width="512" height="512" xlink:href="9CBC28C8.png"  transform="matrix(2.2821 0 0 2.2821 -213.2208 -354.1476)">
	</image>
	<path class="st1" d="M715,0.8H32c-17.7,0-32,14.3-32,32v474c0,17.7,14.3,32,32,32h297.7l-7.8,34h-72.6c-12.6,0-24.4,6.1-31.7,16.3
		l-19.4,27.1c-3.8,5.3,0,12.6,6.5,12.6h337.5c6.4,0,10.2-7.1,6.6-12.4l-18-26.5c-7.3-10.7-19.3-17.1-32.2-17.1h-73.1l-7.4-34H715
		c17.7,0,32-14.3,32-32v-474C747,15.1,732.7,0.8,715,0.8z"/>
	<path class="st1" d="M302.9,1.8H39.1C17.5,1.8,0,19.3,0,40.9v548.8c0,21.6,17.5,39.1,39.1,39.1h263.8c21.6,0,39.1-17.5,39.1-39.1
		V40.9C342,19.3,324.5,1.8,302.9,1.8z M171,595.5c-14.1,0-25.5-11.4-25.5-25.5s11.4-25.5,25.5-25.5s25.5,11.4,25.5,25.5
		C196.6,584.1,185.1,595.5,171,595.5z M311.4,516.8H30.3c-1.5,0-2.8-1.5-2.8-3s1.2-3,2.8-3h281.2c1.5,0,2.8,1.5,2.8,3
		S312.9,516.8,311.4,516.8z"/>
</g>
<g id="Layer_5">
	
		<image style="display:none;overflow:visible;enable-background:new    ;" width="512" height="512" xlink:href="9CBC28CF.png"  transform="matrix(1.6328 0 0 1.6328 -102.0382 -116.1566)">
	</image>
	<path class="st0" d="M631.4,579.3l-79.5-402.5c-4.7-24.5-26.1-42-51-42H436C432.7,64.9,375.1-0.7,304.4-0.7S176,64.9,172.7,134.8
		h-51.8c-25.4,0-47.1,18.2-51.3,43.3L0.3,580.4c-4.3,25.4,15.3,48.4,41,48.4h549.2C616.7,628.8,636.3,605,631.4,579.3z M304.4,31
		c53.2,0,96.6,51.5,99.9,103.8H204.5C207.7,82.5,251.2,31,304.4,31z M191,269.9c-13.8,0-25-11.2-25-25s11.2-25,25-25s25,11.2,25,25
		S204.8,269.9,191,269.9z M417,269.9c-13.8,0-25-11.2-25-25s11.2-25,25-25s25,11.2,25,25S430.8,269.9,417,269.9z"/>
	
		<image style="display:none;overflow:visible;enable-background:new    ;" width="440" height="440" xlink:href="9CBC28CF.jpeg"  transform="matrix(1.9499 0 0 1.9499 -44.3888 -117.5415)">
	</image>
	<path d="M642.3,566.8h-18.7c4.9-4,8.4-9.7,8.4-16.7c0,0-0.2-226.3-0.2-226.7c0-42.6-20.2-79.9-50.7-100.7l-0.2-0.1v-82.4
		c0-28.3-14.6-52.6-35.9-63.4h-0.1V32.7l0.5,0.2h7.9c8.1,0,14.7-7.5,14.6-16.8c-0.1-9.2-7.1-16.2-15.1-16.2h-103
		c-8.1,0-14.7,7.5-14.6,16.8c0.1,9.2,7.1,16.2,15.1,16.2h8.7l0.9-0.2v33.8h-0.4c-20.7,9.3-35.6,32.6-35.6,59.5
		c0,5,0.1,14.8,0.1,14.8v149h-42v-17.6c0-20.3-14.3-36.4-32.1-36.4h-45.1c-17.8,0-32.8,16-32.8,36.4v17.6h-36
		c0,0-0.1-158.8-0.1-163.8c0-26.9-16.6-50-37.3-59.3l-0.5-0.2V32.7l1.1,0.2h8.7c8.1,0,15-7,15.1-16.2c0.1-9.3-6.5-16.8-14.6-16.8
		h-103c-8.1,0-15,7-15.1,16.2c-0.1,9.3,6.5,16.8,14.6,16.8h7.9l0.3-0.2v44.1H113c-21.4,10.8-36,35.1-36,63.4v82.4l0,0
		c-30.6,20.9-50.6,58.2-50.6,100.8c0,0.5-0.4,226.7-0.4,226.7c0,7,3.7,12.7,8.6,16.7H15.9c-8.8,0-15.9,8.1-15.9,18.1v25.7
		c0,10,7.1,18.2,15.9,18.2h233.6c8.8,0,16.5-8.2,16.5-18.2v-25.7c0-10-7.8-18.1-16.5-18.1h-22.7c4.9-4,9.2-9.7,9.2-16.7V427.8h36
		v12.9c0,20.3,14.9,37.1,32.8,37.1h45.1c17.8,0,32.1-16.8,32.1-37.1v-12.9h42v122.3c0,7,2.6,12.7,7.4,16.7h-22.7
		c-8.8,0-16.7,8.1-16.7,18.1v25.7c0,10,8,18.2,16.7,18.2h233.6c8.8,0,16.7-8.2,16.7-18.2v-25.7C659,574.9,651.1,566.8,642.3,566.8z"
		 fill="url(#buyer_grad_hunter)"/>
</g>
</svg>
