<?xml version="1.0" encoding="utf-8"?>
<!-- Generator: Adobe Illustrator 18.1.1, SVG Export Plug-In . SVG Version: 6.00 Build 0)  -->
<svg version="1.1" id="Layer_1" xmlns="http://www.w3.org/2000/svg" xmlns:xlink="http://www.w3.org/1999/xlink" x="0px" y="0px"
	 viewBox="0 0 841.9 841.9" enable-background="new 0 0 841.9 841.9" xml:space="preserve">
<g id="Layer_1_1_" display="none">
	<g id="Layer_3" display="inline">
		<path display="none" d="M367.3,349.1h-84.2c34-11.6,58.3-43.7,58.3-81.6c0-47.7-38.7-86.4-86.4-86.4c-47.6,0-86.3,38.7-86.3,86.4
			c0,37.8,24.5,70.2,58.3,81.6h-95.3v1c-50.8,5.6-90.1,36.2-90.1,74.8v173.6c0,18,14.7,32.7,32.7,32.7s32.7-14.7,32.7-32.7V413.4
			h37.1v349.4c0,106.9,20.9,127.9,46.8,127.9s46.8-20.9,46.8-46.8V636.5h34.9v197.4c-0.7,3.3-1.1,6.7-1.1,10.3c0,26,21,47,47,47
			s47-21.2,47-47c0-0.1,0-0.3,0-0.3l0.6-81.2V413.4h37.1v185c0,18,14.7,32.7,32.7,32.7c18,0,32.7-14.7,32.7-32.7V424.8
			C468.8,381.6,423.3,349.1,367.3,349.1z"/>
		<path d="M510.4,558.3l-62.7-132.5c-27.4-64.5-58.3-74.3-117.6-74.3l-51.3-0.8c42.4-11.4,72.1-54.3,61.9-102.1
			c-6.7-32.2-31.8-57.8-63.8-65.2c-56.5-13.2-106.9,29.4-106.9,83.9c0,38.9,25.9,71.8,61.2,82.7l-43.9-0.7
			c-66.2,0-95.6,6.5-129,79.9L0.3,553.1c-0.3,1.8-0.4,3.6-0.4,5.5c0,19.1,15.5,34.7,34.8,34.7c13.3,0,25-7.8,30.8-18.8l69.6-150.2
			c0.7-2.3,2.9-4,5.4-4h15.3c4.7,0,8.3,4.5,6.9,9.1L65.3,659.7c-2.3,8.1,3.7,16.4,12.2,16.4h80.1v168.4c0,25.7,18.7,46.5,41.7,46.5
			s41.7-20.9,41.7-46.5V675.8h30.4v158.5c0,3.3-0.8,6.6-0.8,10.2c0,25.9,18.8,46.8,42,46.8c23.1,0,42-21.2,42-47c0-0.1,0,0.6,0-0.6
			h0.3V675.8h79.6c9.1,0,15.8-8.8,13.2-17.6L345.3,429c-1.4-4.5,2.1-9.1,6.7-9.1h15.7c2.9,0,5.5,1.9,6.5,4.7l68.1,143.6
			c0,0.1,2.9,7,2.9,7c5.9,10.5,17.3,17.7,30.3,17.7C494.8,593,510.4,577.5,510.4,558.3z"/>
	</g>
</g>
<g id="Layer_4">
	<linearGradient id="SVGID_1_" gradientUnits="userSpaceOnUse" x1="0.8247" y1="-0.2652" x2="0.8247" y2="-0.2552" gradientTransform="matrix(370.9687 0 0 516.1801 0 665.5438)">
			<stop  offset="0" style="stop-color:#f9cef5"/>
			<stop  offset="1" style="stop-color:#e686dc"/>
	</linearGradient>
	<path display="none" d="M1005.3,134.1H235.5c-19.9,0-36,16.1-36,36v534.2c0,19.9,16.1,36,36,36H571l-8.8,38.4h-81.9
		c-14.2,0-27.5,6.9-35.8,18.4l-21.7,30.5c-4.3,5.9,0,14.2,7.3,14.2h380.4c7.2,0,11.6-8,7.4-14L797.7,798
		c-8.3-12.1-21.7-19.3-36.3-19.3H679l-8.4-38.4h334.6c19.9,0,36-16.1,36-36V170.2C1041.4,150.2,1025.3,134.1,1005.3,134.1z"/>
	<path fill="url(#SVGID_1_)" d="M569.7,135.2H272.2c-24.3,0-44,19.7-44,44v618.5c0,24.3,19.7,44,44,44h297.3
		c24.3,0,44-19.7,44-44V179.4C613.7,155,594,135.2,569.7,135.2z M420.9,804.3c-16,0-28.8-12.8-28.8-28.8c0-16,12.8-28.8,28.8-28.8
		s28.8,12.8,28.8,28.8C449.8,791.5,436.9,804.3,420.9,804.3z M579.1,715.7H262.3c-1.7,0-3.2-1.7-3.2-3.4c0-1.7,1.4-3.4,3.2-3.4
		h316.9c1.7,0,3.2,1.7,3.2,3.4C582.4,714,580.9,715.7,579.1,715.7z"/>
</g>
<g id="Layer_5" display="none">
	<path display="inline" d="M711.6,834.2l-89.6-453.7c-5.4-27.7-29.4-47.3-57.5-47.3h-73.2c-3.7-78.8-68.6-152.7-148.3-152.7
		s-144.7,73.9-148.4,152.7h-58.3c-28.6,0-53.1,20.5-57.8,48.8L0.3,835.4C-4.5,864,17.5,890,46.5,890h618.9
		C695,889.9,717.1,863.1,711.6,834.2z M343.1,216.2c60,0,108.8,58.1,112.5,116.9H230.4C234.1,274.3,283.1,216.2,343.1,216.2z
		 M215.3,485.4c-15.5,0-28.2-12.7-28.2-28.2s12.7-28.2,28.2-28.2s28.2,12.7,28.2,28.2S230.8,485.4,215.3,485.4z M469.9,485.4
		c-15.5,0-28.2-12.7-28.2-28.2s12.7-28.2,28.2-28.2c15.5,0,28.2,12.7,28.2,28.2S485.5,485.4,469.9,485.4z"/>
	<path display="inline" d="M723.9,820h-21c5.5-4.5,9.5-10.9,9.5-18.8c0,0-0.3-255-0.3-255.5c0-48-22.7-90.1-57.1-113.5l-0.3-0.1
		v-92.9c0-31.9-16.5-59.3-40.4-71.4h-0.1v-49.7l0.6,0.3h8.9c9.1,0,16.5-8.4,16.5-19c-0.1-10.3-8-18.3-17.1-18.3H506.9
		c-9.1,0-16.5,8.4-16.5,19c0.1,10.3,8,18.3,17.1,18.3h9.8l1-0.3v38.1h-0.4c-23.4,10.5-40.2,36.7-40.2,67c0,5.6,0.1,16.6,0.1,16.6
		v168h-47.2v-19.8c0-22.8-16.1-41-36.2-41h-50.8c-20.1,0-37,18-37,41v19.8H266c0,0-0.1-179-0.1-184.6c0-30.3-18.7-56.4-42.1-66.9
		l-0.6-0.3v-38l1.2,0.3h9.8c9.1,0,16.9-7.8,17.1-18.3c0.1-10.5-7.3-19-16.5-19h-116c-9.1,0-16.9,7.8-17.1,18.3
		c-0.1,10.5,7.3,19,16.5,19h8.9l0.3-0.3v49.7h-0.1c-24.2,12.1-40.6,39.5-40.6,71.4v92.9l0,0c-34.5,23.5-57.1,65.6-57.1,113.6
		c0,0.6-0.4,255.5-0.4,255.5c0,7.8,4.1,14.3,9.6,18.8h-21C8,820,0,829.1,0,840.4v29c0,11.3,8,20.5,17.9,20.5h263.3
		c9.9,0,18.6-9.2,18.6-20.5v-29c0-11.3-8.8-20.4-18.6-20.4h-25.6c5.5-4.5,10.3-10.9,10.3-18.8V663.4h40.6V678
		c0,22.8,16.8,41.8,37,41.8h50.8c20.1,0,36.2-19,36.2-41.8v-14.6h47.3v137.8c0,7.8,2.9,14.3,8.4,18.8h-25.6
		c-9.9,0-18.8,9.1-18.8,20.4v29c0,11.3,9.1,20.5,18.8,20.5h263.3c9.9,0,18.8-9.2,18.8-20.5v-29C742.7,829.2,733.8,820,723.9,820z"/>
</g>
</svg>
